Patient4_TMGait_0pt5_02_left_38_EMG.mot
version=1
nRows=36
nColumns=33
inDegrees=no
endheader
time	1LAddLong	2LGlutMax	3LGlutMed	4LIliopsoas	5LSemiMemb	6LBicFemLong	7LRecFem	8LVastMed	9LVastLat	10LGasMed	11LTibAnt	12lTibPost	13LPeroneusLong	14LSol	15LExtDigLong	16LFlexDigLong	17RAddLong	18RGlutMax	19RGlutMed	20RIliopsoas	21RSemiMemb	22RBicFemLong	23RRecFem	24RVastMed	25RVastLat	26RGasMed	27RTibAnt	28RTibPost	29RPeroneusLong	30RSol	31RExtDigLong	32RFlexDigLong
49.875	0.009766	-0.038757	-0.27908	-0.003204	0.019989	0.014954	0.24384	0.003052	-0.067291	-0.13001	-0.016785	0.00885	0.11673	0.046692	-0.009766	0.024719	-0.079193	0.005188	0.053101	0.059509	0.22018	0.25207	0.12802	0.41809	0.033264	-0.000458	0.039063	-0.002899	0.99884	0.057526	-0.007935	-0.009613
49.876	0.010223	-0.004578	-0.33295	-0.001984	0.030365	0.041504	0.23773	0.001373	-0.058441	-0.1413	-0.010834	0	0.007782	0.048981	-0.009155	0.015106	-0.092163	-0.001373	0.041504	0.098419	0.17853	0.27496	0.10162	0.39627	0.080719	0.001831	0.009308	-0.002594	0.54367	0.059204	-0.003815	0.003357
49.877	0.008087	-0.027161	-0.37537	0.004425	0.034332	-0.008392	0.24109	0.005188	-0.045471	-0.16403	-0.00473	0.007629	-0.015259	-0.003662	0.001068	-0.002594	-0.074463	0.041046	-0.016937	0.063019	0.19257	0.13534	0.040588	0.29862	0.094147	0.002899	0.051727	-0.004272	-0.62759	0.042267	-0.003967	0.006256
49.878	0.005035	-0.062561	-0.36606	0.00061	0.017853	0.007629	0.23209	0.004425	-0.051575	-0.13428	-0.005188	0.005493	-0.015717	-0.045166	-0.000916	-0.001221	-0.036316	0.006866	-0.052948	0.087128	0.38116	-0.003204	0.04303	0.24887	0.10773	0.006256	-0.019684	0.000458	-0.60089	-0.003662	-0.005493	-0.009155
49.879	-0.000305	-0.057526	-0.33432	0.003357	-0.019073	0.013733	0.2002	0.006409	-0.033722	-0.11444	0.005798	0.000916	-0.027313	-0.15625	-0.010681	-0.016327	0.019226	0.013733	0.12802	-0.09201	0.47546	-0.16281	0.094452	0.18585	0.066071	0.006866	-0.050507	-0.002594	-0.050049	-0.043488	-0.004578	-0.010223
49.88	0	-0.044861	-0.3862	0.008087	0.005493	-0.007782	0.19928	0.002747	-0.014648	-0.070801	0.010834	0.004425	-0.054626	-0.17716	-0.004578	-0.010529	0.089722	0.080109	0.007324	-0.13046	0.25238	-0.16632	0.079651	0.031586	0.058136	-0.005035	-0.031586	-0.003357	0.076447	-0.029144	-0.00351	-0.003815
49.881	-0.003357	-0.007629	-0.42404	0.008392	0.0177	-0.003815	0.1889	0.005188	-0.014954	-0.063324	0.007782	0.005646	-0.041046	-0.004883	0.005798	-0.02655	0.103	0.043182	0.13031	-0.11887	0.019989	-0.077972	0.030518	-0.049744	0.043488	-0.002136	-0.046082	-0.005798	0.81924	0.061035	-0.005493	-0.009918
49.882	0.004883	0.014496	-0.44891	0.009918	-0.026703	-0.007477	0.18585	0.004578	-0.025024	-0.02655	-0.046539	0.007172	-0.008087	0.06546	0.018616	-0.027466	0.07843	0.067749	0.49362	0.005493	-0.036469	-0.040283	0.012665	-0.086365	-0.045624	-0.001221	-0.047455	-0.002441	1.0777	0.056763	-0.00061	-0.003357
49.883	-0.001526	0.035858	-0.45502	-0.005646	-0.056458	0.004425	0.15656	-0.001526	-0.02655	0.009003	-0.04837	0.005188	-0.025482	0.052032	0.050659	-0.016785	0.019226	0.099487	0.40146	0.18585	-0.13275	0.081787	-0.087738	-0.17746	-0.12375	0.002441	-0.0354	-0.006714	0.90256	0.00473	-0.003052	0.001984
49.884	0	0.027924	-0.45044	0.007324	-0.02243	0.000763	0.1648	0.003967	-0.024719	0.083923	-0.021515	0.002747	0.009613	-0.049896	0.039825	-0.009308	-0.039368	0.023956	0.024567	0.27817	0.47195	0.22949	-0.12909	-0.1828	-0.24017	0.014038	-0.07843	-0.001373	0.91293	-0.043945	-0.00473	0.006866
49.885	0.00473	0.005035	-0.45639	0.014648	0.032043	-0.022125	0.19058	0.001373	-0.029297	0.10727	-0.011444	0.006866	0.001984	-0.085907	0.012207	-0.024719	-0.05661	0.042114	0.034943	0.19653	0.76508	0.22995	-0.074463	-0.066681	-0.20508	0.003052	-0.061646	-0.005341	0.59616	-0.039978	-0.003204	0.011902
49.886	0.005493	0.03418	-0.44952	0.000305	0.045776	-0.080566	0.18158	-0.001831	-0.024872	0.089417	-0.007019	0.017395	-0.031433	-0.064087	-0.023499	-0.014191	-0.005493	0.036469	-0.022583	0.033112	0.58014	0.19852	0.063019	-0.11704	-0.18143	0.002747	-0.04364	-0.001526	0.083923	0.01236	0.000916	0.009766
49.887	0.007935	0.028229	-0.4303	0.006104	0.055847	-0.1004	0.14832	-0.004425	-0.041199	0.10727	-0.003357	0.010681	-0.022736	-0.067444	-0.029907	-0.018311	-0.023193	-0.056305	-0.11673	-0.055389	0.34012	0.13428	0.15533	-0.32196	-0.16083	-0.010986	0.056	-0.000153	0.10971	0.060883	0.000305	0.00885
49.888	-0.006561	0.063477	-0.43442	0.001221	0.041656	-0.080109	0.16556	0.004425	-0.057373	0.057068	0.00351	0.009766	-0.05127	-0.059052	-0.018616	-0.030518	-0.10132	-0.040741	0.039215	-0.11917	0.38284	0.22156	0.11887	-0.25314	-0.13001	0.000305	0.093994	-0.005798	0.036621	0.008087	-0.00885	0.013275
49.889	-0.00946	0.048676	-0.44083	0.005798	0.020752	-0.069733	0.15335	0.005951	-0.048828	-0.026703	-0.002136	0.003357	-0.022736	-0.046844	0.005188	-0.028076	-0.13092	0.046234	0.15671	-0.083313	0.30273	0.18219	-0.029907	-0.11948	-0.1622	-0.003815	0.10727	-0.00412	-0.27924	-0.091095	-0.003815	0.01236
49.89	-0.013733	0.06546	-0.44861	-0.007629	-0.034332	-0.087738	0.16647	0.007019	-0.04715	-0.024872	0.00412	0.001373	-0.003662	-0.079041	0.021515	-0.007629	-0.10437	-0.01297	0.22919	-0.021362	0.12863	0.15091	-0.13107	-0.10727	-0.12314	0.000916	0.10788	-0.002899	-0.49454	-0.088501	-0.004272	0.008698
49.891	-0.011749	0.059357	-0.448	-0.003662	-0.057373	-0.05661	0.15503	-0.001984	-0.046234	-0.040436	-0.006256	-0.001068	0.00946	-0.054321	0.02594	-0.002289	-0.07309	0.049133	0.20447	-0.027771	-0.032043	0.15121	-0.11124	-0.052643	-0.11261	0.002899	0.022278	-0.000916	-0.87494	-0.082397	-0.00351	0.001373
49.892	0.001831	0.078888	-0.43732	-0.000153	-0.055695	-0.015564	0.16678	0.000305	-0.061493	-0.013123	0.01236	-0.007935	-0.014191	-0.006104	0.003815	0.005035	-0.012817	0.068207	0.075989	-0.038452	-0.052032	0.068359	-0.055695	-0.09491	-0.065613	0.002747	-0.042725	-0.005035	-0.401	-0.019836	-0.010223	0.016479
49.893	0.003815	0.10361	-0.41428	-0.00412	-0.025787	-0.058441	0.177	-0.009613	-0.045166	0.17425	0.018921	-0.003662	-0.032959	0.03067	-0.014496	0.00473	0.016785	0.17563	0.003662	-0.065918	0.10895	0.094604	-0.080719	-0.079498	-0.075073	-0.00351	-0.016937	-0.002441	-0.004425	0.073242	-0.001984	0.005188
49.894	-0.002747	0.092468	-0.41977	0.014496	-0.014191	-0.060577	0.18021	0.002289	-0.041962	0.17731	0.012665	0.006409	-0.015717	0.037231	-0.038452	-0.002289	0.015869	0.24689	-0.056	-0.045624	0.2652	0.093079	-0.27512	-0.019684	0.046234	-0.00351	0.014801	-0.005798	0.001678	0.096436	-0.001526	0.003815
49.895	0.012207	0.11246	-0.41168	0.009918	-0.021362	-0.042725	0.15289	0.003204	-0.056305	-0.47806	0.020294	0.005035	-0.027924	-0.007629	-0.039368	-0.002899	0.022278	0.2095	-0.15976	0.029907	0.43884	0.04364	-0.36102	-0.010986	0.050507	-0.012817	0.013733	-0.002289	-0.003357	-0.014038	-0.001984	0.004578
49.896	0.013733	0.11688	-0.41	0.010986	0.027313	-0.071716	0.14893	0.001373	-0.04364	-0.66101	0.006866	0.004578	-0.061646	-0.047302	-0.002747	-0.005798	0.008087	0.22095	0.024109	0.003662	0.61935	0.15808	-0.43137	-0.060577	-0.049286	-0.012665	0.010071	-0.005798	-0.11246	-0.050507	0.000458	0.002441
49.897	0.00061	0.1062	-0.4129	0.004272	0.056	-0.048981	0.15427	0.001526	-0.053864	-0.18601	0.005188	0.008698	-0.096741	-0.080261	0.022583	-0.006714	-0.003052	0.19852	0.066376	0.002441	0.59891	0.26886	-0.35202	0.072021	0.061951	-0.00946	0.041199	-0.007019	-0.44449	-0.090637	-0.005951	0.004578
49.898	0.005646	0.10819	-0.41168	-0.00351	0.036469	0.013733	0.15137	0.007324	-0.050507	-0.009918	-0.007019	0.015411	-0.077515	-0.1004	0.01709	-0.002136	0.029755	0.15396	-0.099945	0.004272	0.62317	0.19196	-0.40436	0.26703	0.22034	-0.009155	0.14252	-0.00946	-0.54077	-0.085602	-0.005493	0.004272
49.899	0.020599	0.1181	-0.39414	0.011902	0.007019	0.020447	0.14038	0.005188	-0.053253	0.112	-0.031586	0.014648	-0.030823	-0.12665	0.016327	-0.002747	-0.00824	0.13733	0.021057	-0.014191	0.30579	0.050659	-0.41657	0.41397	0.29404	-0.00824	0.16113	-0.004883	0.020752	-0.067139	-0.001831	0.00412
49.9	0.019379	0.10468	-0.39124	0.036469	0.00824	0.003815	0.11688	0.001984	-0.039063	0.39093	-0.042725	0.022125	0.002747	-0.14694	0.019684	-0.010376	-0.008392	0.071716	0.20004	-0.025482	0.073395	-0.050507	-0.18204	0.32913	0.2475	-0.00824	0.069122	-0.006256	0.92956	-0.043793	-0.001831	0.006104
49.901	0.005951	0.085602	-0.36972	0.014191	-0.002441	-0.022125	0.10101	-0.002289	-0.042419	0.31967	-0.02594	0.015411	-0.046844	-0.12726	-0.002441	0.007629	-0.016174	0.014801	0.38574	-0.049744	-0.20493	-0.033875	-0.112	0.13596	0.16159	-0.000458	0.018921	-0.00351	0.040131	-0.047607	-0.00473	0.012207
49.902	0.003204	0.14313	-0.34454	0.004883	-0.016785	0.010223	0.10803	0.005188	-0.035095	-0.034332	-0.024109	0.011902	-0.016632	-0.10346	-0.025482	0.012817	-0.028534	-0.070801	0.18616	0.031433	-0.2153	-0.004272	-0.070801	0.022125	0.032501	-0.001526	0.012817	-0.002899	-1.2137	-0.074005	-0.004272	0.004272
49.903	-0.000153	0.10956	-0.32089	0.00946	-0.021057	-0.007782	0.090179	0.014038	-0.034943	-0.10941	-0.006256	0.006561	0.05249	-0.05249	-0.037231	0.002899	-0.042114	-0.029297	0.076904	0.058136	-0.28488	0.062866	-0.11063	0.066833	0.022125	0.00412	-0.032654	-0.008087	-0.90805	-0.13748	-0.004272	0.015106
49.904	-0.007172	0.12009	-0.31235	0.001373	0.005646	-0.007629	0.077209	0.001984	-0.006714	-0.23727	-0.017242	0.001221	0.068817	0.05188	-0.045471	0.003357	-0.079193	0.096283	0.16296	-0.032349	-0.34439	0.23819	-0.10635	0.1915	0.078583	-0.002899	-0.026703	-0.002441	0.036621	-0.027924	-0.001221	0.016632
49.905	-0.003052	0.11734	-0.31525	0.013275	-0.04303	-0.022583	0.092468	0.00473	-0.016174	-0.26459	-0.002136	-0.003815	0.077209	0.18387	-0.038147	-0.006866	-0.083618	0.10605	0.20645	-0.16953	0.42618	0.083466	-0.014496	0.24597	0.085297	-0.008698	0.036316	-0.011139	0.57144	0.054321	-0.002136	0.012817
49.906	-0.001373	0.13519	-0.31067	-0.005035	-0.055542	-0.060425	0.11185	0.007324	-0.014496	-0.14511	-0.005035	-0.007477	0.056763	0.24811	-0.034943	-0.007019	-0.057526	0.15427	0.14633	-0.21957	0.83084	-0.13748	-0.042419	0.27481	0.064697	-0.012054	0.044556	-0.010376	1.0872	0.044403	-0.003052	0.014648
49.907	-0.000916	0.11215	-0.27878	0.004425	0.017853	-0.072632	0.096283	0.001831	-0.0177	0.20813	0.001221	-0.00351	0.041656	0.21027	-0.029907	-0.006409	-0.032043	0.21286	0.13626	-0.19623	0.28076	-0.11581	-0.1442	0.25971	-0.022888	-0.011902	0.025635	-0.005798	0.88989	0.023499	-0.004425	0.007782
49.908	0.004272	0.14191	-0.24277	0.000305	0.040283	-0.023651	0.10483	0.00473	-0.011597	0.45013	-0.002136	0.001984	0.052795	0.15656	-0.037231	-0.000916	0.025177	0.1445	0.009155	-0.038605	0.023804	-0.043793	-0.15442	0.18738	-0.001068	-0.012817	-0.034332	-0.007782	0.4451	-0.0354	-0.003662	0.008392
49.909	-0.001221	0.12497	-0.23148	0.003357	0.018158	0.00412	0.086365	0.008698	-0.012054	0.096893	0.021515	0.019684	-0.010376	0.11841	-0.031281	-0.000458	0.063629	0.061035	-0.093231	0.2475	-0.073853	-0.10895	-0.18097	0.079651	0.03067	-0.006256	0.012665	-0.006256	-0.14679	-0.046997	-0.003357	0.014801
49.91	-0.006256	0.14587	-0.19836	-0.006409	0.003815	0.062866	0.085144	0.005341	0.005951	-0.17349	0.020752	0.017242	-0.036774	0.081024	-0.032806	-0.003357	0.10986	-0.059357	-0.15869	0.38483	-0.15686	-0.12482	-0.084991	-0.092316	-0.054321	-0.003052	0.064545	-0.004425	-0.73029	-0.072632	-0.004883	0.014954
